<?xml version="1.0" encoding="utf-8"?>
<!-- Generator: Adobe Illustrator 25.0.1, SVG Export Plug-In . SVG Version: 6.00 Build 0)  -->
<svg version="1.0" id="katman_1" xmlns="http://www.w3.org/2000/svg" xmlns:xlink="http://www.w3.org/1999/xlink" x="0px" y="0px"
	 viewBox="0 0 800 600" style="enable-background:new 0 0 800 600;" xml:space="preserve">
<style type="text/css">
	.st0{fill-rule:evenodd;clip-rule:evenodd;fill:#BC232C;}
</style>
<path class="st0" d="M259.7,220.1l-67.1-24.3l-66.6,24.3l-23.9,129l-0.1,0.7h0l0.1-0.7l-0.6,1l0.9,0h0l92,54l89.4-56.5h0.3l-0.1-0.1
	l0.1-0.1L259.7,220.1z M254.3,223.5l-17,46.9l-41-67.9L254.3,223.5z M238.4,281.8l36.9,60.9l-59.2,0.8L238.4,281.8z M193,206.7
	l42.2,69.7l-24.4,67.3l-33.7,0.4l-25.7-67.8L193,206.7z M189.9,202.1l-40.8,68.3l-17.8-46.9L189.9,202.1z M128.9,231.2l17,44.6
	l-36.5,61.1L128.9,231.2z M148.1,281.8l23.7,62.4l-61.5,0.8L148.1,281.8z M111.9,350l61.7-0.8l18.1,47.8L111.9,350z M194.2,389.3
	L179,349.1l30-0.4L194.2,389.3z M196.8,396.7l17.4-48.1l59.9-0.8L196.8,396.7z M240.6,275.8l16.1-44.5l20,104.2L240.6,275.8z
	 M204.2,275.4v-16.6h11.6v41.4h-11.6v-16.6h-19.9v16.6h-11.6v-41.4h11.6v16.6H204.2z M331.8,235.6V277h46.4v-41.4h19.9V335h-19.9
	v-41.4h-46.4V335h-19.9v-99.4H331.8z M525.7,335h65.1l7.8-19.9h-53v-79.5h-19.9V335z M489.2,252.2h-54.7v33.1h54.7V252.2z
	 M499.2,235.6l9.9,22.6V335h-19.9v-33.1h-54.7V335h-19.9v-76.8l9.9-22.6H499.2z M678.1,235.6h9.9l9.9,19.9v59.7l-8.3,19.9h-11.6
	h-49.7h-11.6l-8.3-19.9v-59.7l9.9-19.9h9.9H678.1z M628.4,315.2h49.7v-59.7h-49.7V315.2z"/>
</svg>
