<?xml version="1.0" encoding="utf-8"?>
<!-- Generator: Adobe Illustrator 19.2.1, SVG Export Plug-In . SVG Version: 6.00 Build 0)  -->
<svg version="1.1" id="layer" xmlns="http://www.w3.org/2000/svg" xmlns:xlink="http://www.w3.org/1999/xlink" x="0px" y="0px"
	 viewBox="0 0 652 652" style="enable-background:new 0 0 652 652;" xml:space="preserve">
<path d="M143.9,353.5h1.9v12.8h7.6v1.6h-9.5V353.5z M174.1,362.7c0,3.6-2.1,5.5-5.7,5.5c-3.7,0-5.9-1.7-5.9-5.5v-9.2h1.9v9.2
	c0,2.5,1.5,3.9,4,3.9c2.4,0,3.8-1.4,3.8-3.9v-9.2h1.9L174.1,362.7z M188.2,360.5l-4.7-7h2.3l3.6,5.6l3.7-5.6h2.1l-4.8,7l5.1,7.4
	h-2.3l-3.9-5.9l-4,5.9h-2.2L188.2,360.5z M216.1,362.7c0,3.6-2.1,5.5-5.7,5.5c-3.7,0-5.9-1.7-5.9-5.5v-9.2h1.9v9.2
	c0,2.5,1.5,3.9,4,3.9c2.4,0,3.7-1.4,3.7-3.9v-9.2h1.9V362.7z M226.7,353.5h6.8c2.7,0,4.4,1.5,4.4,3.8c0,1.7-0.8,3.2-2.5,3.7v0
	c1.7,0.3,2,1.6,2.2,3c0.1,1.4,0,3,0.8,4h-2.1c-0.5-0.6-0.2-2.1-0.5-3.5c-0.2-1.4-0.5-2.6-2.4-2.6h-4.7v6.1h-1.9V353.5z M232.6,360.1
	c1.8,0,3.3-0.5,3.3-2.6c0-1.4-0.8-2.5-2.6-2.5h-4.8v5H232.6z M248.1,367.9h1.9v-14.4h-1.9V367.9z M266.9,353.2
	c4.6,0,6.9,3.6,6.9,7.5c0,3.9-2.3,7.5-6.9,7.5c-4.6,0-6.9-3.6-6.9-7.5C260,356.8,262.3,353.2,266.9,353.2 M266.9,366.6
	c3.5,0,5-3,5-5.9c0-2.9-1.5-5.9-5-5.9c-3.5,0-5,3-5,5.9C261.9,363.6,263.4,366.6,266.9,366.6 M295.2,362.7c0,3.6-2.1,5.5-5.7,5.5
	c-3.7,0-5.9-1.7-5.9-5.5v-9.2h1.9v9.2c0,2.5,1.5,3.9,4,3.9c2.4,0,3.7-1.4,3.7-3.9v-9.2h1.9V362.7z M314.1,357.7
	c-0.2-2.1-1.6-2.9-3.6-2.9c-1.6,0-3.2,0.6-3.2,2.5c0,1.8,2.3,2,4.6,2.6c2.3,0.5,4.6,1.3,4.6,4.2c0,3.1-3,4.3-5.6,4.3
	c-3.2,0-5.9-1.6-5.9-5.1h1.8c0,2.4,2,3.5,4.2,3.5c1.7,0,3.7-0.5,3.7-2.6c0-2-2.3-2.3-4.6-2.8c-2.3-0.5-4.6-1.2-4.6-3.8
	c0-2.9,2.6-4.2,5.2-4.2c2.9,0,5.2,1.4,5.3,4.6H314.1z M339.6,353.5h9.5v1.6h-7.5v4.6h6.6v1.6h-6.6v6.6h-1.9V353.5z M370.2,362.7
	c0,3.6-2.1,5.5-5.7,5.5c-3.7,0-5.9-1.7-5.9-5.5v-9.2h1.9v9.2c0,2.5,1.4,3.9,4,3.9c2.4,0,3.8-1.4,3.8-3.9v-9.2h1.9V362.7z
	 M380.8,353.5h6.8c2.7,0,4.4,1.5,4.4,3.8c0,1.7-0.8,3.2-2.5,3.7v0c1.7,0.3,2,1.6,2.2,3c0.1,1.4,0,3,0.8,4h-2.1
	c-0.5-0.6-0.2-2.1-0.5-3.5c-0.2-1.4-0.5-2.6-2.4-2.6h-4.7v6.1h-1.9V353.5z M386.7,360.1c1.8,0,3.3-0.5,3.3-2.6
	c0-1.4-0.8-2.5-2.6-2.5h-4.8v5H386.7z M402.1,353.5h2l7.6,11.7h0v-11.7h1.8v14.4h-2.1l-7.5-11.6h0v11.6h-1.8V353.5z M424.3,367.9
	h1.9v-14.4h-1.9V367.9z M440.3,355.1h-4.8v-1.6H447v1.6h-4.8v12.8h-1.9V355.1z M467.7,362.7c0,3.6-2.1,5.5-5.7,5.5
	c-3.7,0-5.9-1.7-5.9-5.5v-9.2h1.9v9.2c0,2.5,1.5,3.9,4,3.9c2.4,0,3.8-1.4,3.8-3.9v-9.2h1.9V362.7z M478.3,353.5h6.8
	c2.7,0,4.4,1.5,4.4,3.8c0,1.7-0.8,3.2-2.5,3.7v0c1.7,0.3,2,1.6,2.2,3c0.1,1.4,0,3,0.8,4h-2.1c-0.5-0.6-0.2-2.1-0.5-3.5
	c-0.2-1.4-0.5-2.6-2.4-2.6h-4.7v6.1h-1.9V353.5z M484.2,360.1c1.8,0,3.3-0.5,3.3-2.6c0-1.4-0.8-2.5-2.6-2.5h-4.8v5H484.2z
	 M499.6,353.5h9.9v1.6h-8v4.6h7.5v1.6h-7.5v5h8.1v1.6h-10L499.6,353.5z M50.8,284c-2.9,0.2-7.2,0.5-10.1,0.5H28.8l-0.2,2.1
	c1.6-0.2,7.5-0.9,8.2-0.2c0.8,0.8,0.8,19.4,0.7,22.4c-0.1,4.3-0.1,12.2-0.8,19.8c-0.6,7.6-1.9,14.9-4.8,17.7c-1.7,1.8-4.6,4.3-5.4,5
	l1.4,1.4c1.9-1.5,15.8-12.6,15.7-23.9c0,0-0.2-16.9-0.1-19.5c0-1.7,0.1-6.6,0.4-11.4c0.2-4.7,0.8-9.5,1.8-10.7
	c1.7-1.7,4.1-1.8,4.9-1.8L50.8,284z M95.7,293.8c-2.3,0.2-5.4,0.4-7.8,0.4h-6.7l-0.2,1.7c1.2-0.2,4.7-0.7,5.2-0.2
	c0.8,0.9,0.7,18.4,0.7,22.4c-0.1,11.2-6.1,13.8-12.3,13.8c-10.1,0-11.5-7.4-11.6-15.3c-0.1-2.7,0.2-5.4,0.2-8.1
	c0-5.1,0.3-10.8,1.6-12.1c1.4-1.4,3.8-1.5,4.6-1.5l0.1-1.2c-2.4,0.2-6.3,0.4-8.7,0.4h-8.2l-0.2,1.7c1.2-0.2,4.6-0.7,5.2-0.2
	c0.5,0.6,0.5,6,0.3,11.3c-0.2,5.4-0.5,11.2-0.5,13.2c0,10.9,5.8,14.1,15.7,14.1c12.5,0,16-7.8,16-16.5c0-4.6,0.2-19.5,2-21.4
	c1.4-1.4,3.6-1.5,4.3-1.5L95.7,293.8z M146.1,331.3c-1.1,0.2-4.1,0.6-4.6,0.2c-1.2-1.2-2.2-32.9-0.2-34.9c1.3-1.5,3.7-1.6,4.5-1.6
	l0.1-1.2c-2.3,0.2-4.9,0.5-7.3,0.4L136,294c-3.4,8.1-10.9,23.4-15.5,31.5c-0.2-0.8-8.6-31.4-14.2-32c-1.4-0.2-8.2,0.5-9.5,0.7
	l-0.2,1.2h1.9c3.2,0,5.7,1.4,5.7,3.6c-0.2,5.1-3.7,29.9-5.7,31.7c-1.5,1.4-3.6,1.5-4.3,1.5l-0.3,1.2c2.2-0.2,4.7-0.4,7.1-0.4h6.8
	l0.4-1.7c-1.2,0.2-4.4,0.6-4.9,0.1c-0.5-0.5,0.2-7,0.9-13.4c0.8-6.5,1.6-13.4,1.9-15.9c5,9.1,11.2,29.6,11.9,32.1l1-0.2
	c4.3-10.6,16.1-31.6,16.1-31.6c0,3.5,0.2,9.8,0.3,15.7c0,5.8-0.2,11.6-1.2,12.6c-1.4,1.5-4,1.5-4.7,1.5l-0.2,1.2
	c2.4-0.2,6.6-0.4,8.9-0.4h7.8L146.1,331.3z M182.1,321.4c0-3.9-2.9-7.8-10.7-9.5c10.8-5.3,11-18.1-3-18.1c-3.6,0-6.8,0.4-9.2,0.4
	h-9.1l-0.2,1.7c1.2-0.2,5.5-0.7,6.1-0.2c0.7,0.7,0.9,15.6,0.9,18c0,1.3,0.1,5.1-0.1,8.8c-0.2,3.6-0.5,7.2-1.4,8.2
	c-1.5,1.5-4.5,1.5-5.4,1.5l-0.2,1.2c2.4-0.2,7.1-0.4,9.5-0.4c2.4,0,4.8,0.2,7.4,0.2C177,333.1,182,327.1,182.1,321.4z M174.6,303.6
	c0,3.7-2.3,7.4-7.1,7.6l-5.4,0.1v-15.6l2.6-0.4C171.8,295.4,174.6,299.6,174.6,303.6z M176.4,322.9c0,4.3-2.5,8.5-9,8.5
	c-4.3,0-5.4-0.5-5.4-1.6V313l4.7,0.2C173.3,313.4,176.4,318,176.4,322.9z M227.1,313c0.2-11.4-8.5-19.5-19.2-19.5
	c-12.1,0-21.2,8.9-21.4,21.4c-0.2,11.8,8.7,19.5,19.8,19.5C217.3,334.4,226.9,325.7,227.1,313z M221.5,315c0.3,8.7-4,17.4-12.6,17.4
	c-8.7,0-16.3-8.1-16.8-19.4c-0.3-7.4,3.6-17.5,13-17.5C214,295.4,221,303.7,221.5,315L221.5,315z M299.1,328
	c-2.1,0.9-10.8,4.2-17,4.2c-12.1,0-21.7-8.8-21.4-24.6c0.2-12.7,7.7-21.4,18.9-21.4c4.7,0,10.8,0.7,13.8,3.8c2.2,2.2,2.2,5.7,2.1,7
	l2-0.2c-0.5-2.9-0.7-8.2-0.6-11.2c-1.9-0.4-4.3-1.7-14.3-1.7c-17.4,0-29.6,10.1-29.9,25.3c-0.3,17.8,13.5,25.9,27.2,25.9
	c9.5,0,17.5-4,18.8-4.6L299.1,328z M341.9,313c0.2-11.4-8.5-19.5-19.2-19.5c-12.1,0-21.2,8.9-21.4,21.4
	c-0.2,11.8,8.7,19.5,19.8,19.5C332.1,334.4,341.7,325.7,341.9,313z M336.3,315c0.3,8.7-4,17.4-12.6,17.4c-8.7,0-16.3-8.1-16.8-19.4
	c-0.3-7.4,3.6-17.5,13-17.5C328.8,295.4,335.9,303.7,336.3,315L336.3,315z M374.5,322.5l-1.5-0.2c-0.2,1.2-1.1,5.7-2.5,7.1
	c-2,2-3.8,2.2-8,2.2c-1.5,0-6.1,0.1-7.6-0.5c-0.6-2.5-0.5-14.8-0.5-16.9c0-1.3,0.1-5.3,0.3-9.2c0.2-3.8,0.6-7.7,1.5-8.6
	c1.5-1.5,5.7-1.5,6.7-1.5l0.2-1.2c-2.6,0.2-8.5,0.4-10.9,0.4h-9.8l-0.2,1.7c1.3-0.2,6.2-0.7,6.8-0.2c0.6,0.7,0.6,15.6,0.5,18
	c0,1.3,0,5.1-0.2,8.8c-0.2,3.6-0.6,7.2-1.5,8.2c-1.5,1.5-4.7,1.5-5.7,1.5l-0.2,1.2c2.5-0.2,7.5-0.4,9.9-0.4c4,0,8.5,0.2,12.3,0.5
	c3.9,0.2,6.6,0.2,7.3-0.5C372.4,332.1,374.1,324.1,374.5,322.5L374.5,322.5z M408,322.5l-1.5-0.2c-0.2,1.2-1.1,5.7-2.5,7.1
	c-2,2-3.8,2.2-8,2.2c-1.6,0-6.1,0.1-7.6-0.5c-0.6-2.5-0.5-14.8-0.5-16.9c0-1.3,0.1-5.3,0.3-9.2c0.2-3.8,0.6-7.7,1.5-8.6
	c1.5-1.5,5.7-1.5,6.7-1.5l0.1-1.2c-2.6,0.2-8.5,0.4-10.9,0.4H376l-0.2,1.7c1.3-0.2,6.2-0.7,6.8-0.2c0.6,0.7,0.6,15.6,0.5,18
	c0,1.3,0,5.1-0.2,8.8c-0.2,3.6-0.6,7.2-1.5,8.2c-1.5,1.5-4.7,1.5-5.7,1.5l-0.2,1.2c2.5-0.2,7.5-0.4,9.9-0.4c4,0,8.5,0.2,12.3,0.5
	c3.9,0.2,6.6,0.2,7.3-0.5C405.9,332.1,407.6,324.1,408,322.5L408,322.5z M441.5,322.5l-1.2-0.1c-0.4,1.9-1.3,5.6-3.1,7.4
	c-1.9,1.9-14,3.3-15.8,1.5c-0.8-0.8-0.5-14.3-0.5-17.3c0.9,0.1,3.3,0,5.5,0.1c2.1,0.1,4.5,0.2,5,0.7c0.5,0.5,0.9,1.7,1.2,4l1.1-0.2
	c-0.1-1.1-0.2-5.5,0.2-8.5l-0.9-0.2c-0.4,0.8-0.8,1.5-1,1.7c-0.5,0.6-2.9,0.8-5.2,0.9c-2.4,0.1-4.8,0.1-5.9,0.2l0.2-16.8
	c1.2,0,3.7-0.2,6.3-0.3c2.5,0,5.2,0.2,6.3,1.3c0.5,0.4,0.4,5.3,0.3,6.6l1.1,0.3c0-1.8,0.5-4.3,0.9-6.4c0.4-1.9,0.9-3.5,1-4.3
	c-3,0.7-13.1,1.3-18.8,1.3c-3.2,0-8.4-0.2-9.5-0.2l-0.2,1.7c0.9-0.1,2.2-0.2,3.3-0.2c1.4-0.1,2.6,0,2.9,0.3c1.1,1.1,1.3,32.7-0.9,35
	c-1.3,1.4-4.6,1.5-6.2,1.5l-0.2,1.2c3.2-0.2,7.9-0.4,10.1-0.4c4.8,0,10.8,0.2,14.4,0.4c3.7,0.2,6.2,0.2,6.8-0.4
	C439.4,332.3,440.9,325.5,441.5,322.5L441.5,322.5z M480.6,329c-1.7,0.7-8.6,3.3-13.6,3.3c-9.7,0-17.4-7.1-17.1-19.7
	c0.2-10.2,6.1-17.1,15.1-17.1c3.7,0,8.6,0.6,11,3c1.8,1.8,1.8,4.6,1.7,5.6l1.6-0.1c-0.4-2.3-0.5-6.5-0.5-9
	c-1.6-0.3-3.4-1.4-11.4-1.4c-13.9,0-23.7,8.1-23.9,20.2c-0.2,14.3,10.8,20.7,21.8,20.7c7.6,0,14-3.2,15-3.7L480.6,329z M519.1,293.2
	c-3,0.7-12.1,1.3-17.8,1.3c-11.2,0.1-16.9-1.2-18.1-1.7c-0.2,2.3-2.3,9.4-2.8,10.6l1.1,0.5c0,0,1.9-5.7,3.3-7.1
	c1.1-1,13.4-0.8,13.4-0.8s0.6,15.3,0.5,17.7c0,1.3-0.1,5.1-0.3,8.8c-0.2,3.6-0.6,7.4-1.5,8.4c-1.2,1.2-5.9,1.2-7.1,1.2l-0.2,1.2
	c2.6-0.2,9.2-0.4,11.6-0.4h10.7l0.2-1.9c-1.5,0.2-7.1,0.9-7.7,0.4c-0.7-0.7-0.7-14.9-0.7-17.2c0-2.5,0.5-18.1,0.5-18.1
	s10.3-0.6,11.7,0.9c0.5,0.5,1.4,5.9,1.2,6.7l1.2-0.5C518.4,303.3,518.1,296.8,519.1,293.2L519.1,293.2z M538.1,331.3
	c-1.2,0.2-5.3,0.7-5.9,0.2c-0.6-0.7-0.6-14.9-0.5-17.2c0-1.3,0.1-5.3,0.3-9.2c0.2-3.8,0.6-7.7,1.5-8.6c1.4-1.4,3.3-1.5,3.9-1.5
	l0.2-1.2c-2.3,0.2-5.7,0.4-8.1,0.4h-8.1l-0.2,1.7c1.2-0.2,4.6-0.7,5.1-0.2c0.7,0.7,0.6,15.6,0.5,18c0,1.3,0,5.1-0.2,8.8
	c-0.2,3.6-0.6,7.3-1.6,8.2c-1.4,1.4-3.4,1.5-4.1,1.5l-0.2,1.2c2.3-0.2,5.9-0.4,8.3-0.4h8.8L538.1,331.3z M580.2,313
	c0.2-11.4-8.5-19.5-19.2-19.5c-12.1,0-21.2,8.9-21.4,21.4c-0.2,11.8,8.7,19.5,19.8,19.5C570.4,334.4,580,325.7,580.2,313z
	 M574.6,315c0.3,8.7-4,17.4-12.6,17.4c-8.7,0-16.3-8.1-16.8-19.4c-0.3-7.4,3.6-17.5,13-17.5C567.1,295.4,574.2,303.7,574.6,315
	L574.6,315z M626.4,293.8c-2.3,0.2-5,0.4-7.3,0.4h-7.9l-0.2,1.7c1.2-0.2,5.5-0.7,6-0.2c0.9,0.9,1.3,29.6,1.3,29.6
	c-0.5-0.7-23.2-30.5-28-31.9c-1.6-0.5-9.1,0.5-10.3,0.8l-0.2,1.2h4c2.4,0,5.4,3.1,5.6,4c0.2,0.5,0.3,28.5-2.4,31.3
	c-1.4,1.4-3.4,1.5-4.1,1.5l-0.2,1.2c2.3-0.1,4.7-0.4,7.1-0.4h7.8l0.2-1.6c-1.2,0.2-5.3,0.6-5.9,0.1c-0.4-0.5-0.5-30.3-0.5-30.3
	c8.6,8.8,25.9,31.2,29.1,35.3c-0.2-6.8-0.5-37.7,1.6-39.8c1.4-1.5,3.6-1.6,4.3-1.6L626.4,293.8z"/>
</svg>
