<?xml version="1.0" encoding="utf-8"?>
<!-- Generator: Adobe Illustrator 25.0.1, SVG Export Plug-In . SVG Version: 6.00 Build 0)  -->
<svg version="1.0" id="Layer_1" xmlns="http://www.w3.org/2000/svg" xmlns:xlink="http://www.w3.org/1999/xlink" x="0px" y="0px"
	 viewBox="0 0 862 509" style="enable-background:new 0 0 862 509;" xml:space="preserve">
<style type="text/css">
	.st0{fill:#1285FF;}
	.st1{fill:none;}
</style>
<path class="st0" d="M631.8,208.7c24.9,0,42,16.8,42,41.6s-17.1,41.6-42,41.6s-41.9-17-41.9-41.6C589.8,225.5,607,208.7,631.8,208.7
	z M631.8,281.7c18.1,0,30.4-12.6,30.4-31.3s-12.3-31.3-30.4-31.3s-30.3,12.6-30.3,31.3S613.8,281.7,631.8,281.7z"/>
<path class="st0" d="M709.5,225.3h-0.4v-9.1h-12.4v74.1c0,0.6,0,1.1,0.2,1.7H709c0.1-0.6,0.2-1.1,0.2-1.7v-32.1
	c0-24,6.7-36.1,25.3-37.2v-12C721.1,209.7,715.1,215,709.5,225.3z"/>
<path class="st0" d="M528.5,208.7c-14.2,0-25.3,5.5-31.6,14.9h-0.3v-7.4h-11.4v98.9h11.4v-38.6h0.3c6.3,9.4,17.4,14.9,31.6,14.9
	c23.8,0,40-16.5,40-41.4S552.3,208.7,528.5,208.7z M526.7,281.2c-17.7,0-30.1-12.6-30.1-31.1c0-18.4,12.4-31.1,30.1-31.1
	s30.3,12.6,30.3,31.1S544.5,281.2,526.7,281.2L526.7,281.2z"/>
<path class="st0" d="M450.1,292H462c0.1-0.6,0-6.4,0-7.1l0-68.6h-12v7.5c-6.4-9.5-17.6-15-32.1-15c-24.2,0-40.5,16.7-40.5,41.6
	s16.3,41.6,40.5,41.6c14.5,0,25.7-5.5,32.1-15L450.1,292z M419.8,281.7c-18.2,0-30.6-12.6-30.6-31.3s12.5-31.3,30.6-31.3
	c18,0,30.6,12.8,30.6,31.3C450.4,269,437.8,281.7,419.8,281.7z"/>
<path class="st0" d="M235.3,292v-45.3c0-24.2-12.1-37.9-34.4-37.9c-13.6,0-23.8,5.4-29.8,14.5h-0.3v-7h-11.5v69.4
	c0,0.7-0.1,5.7,0,6.3h11.3c0.1-0.6,0.1-5.6,0.1-6.3v-35.2c0-19.2,10.7-31.3,27.6-31.3c16.5,0,25.3,9.6,25.3,27.9l-0.1,44.9"/>
<path class="st0" d="M787.5,281.5c-11.8,0-18.7-7.5-18.7-21v-41h33.7l0.1-10.6h-33.8v-15.4H757v66.9c0,19.8,11.4,31.7,29.8,31.7
	c9.8,0,17.5-3.1,22.7-8.7l-7.8-7.9C798.5,279.4,793.8,281.5,787.5,281.5z"/>
<path class="st0" d="M287.6,281.5c-11.8,0-18.7-7.5-18.7-21v-41h33.7l0.1-10.6h-33.8v-15.4h-11.8v66.9c0,19.8,11.4,31.7,29.8,31.7
	c9.7,0,17.5-3.1,22.7-8.7l-7.8-7.9C298.6,279.4,293.9,281.5,287.6,281.5z"/>
<path class="st0" d="M338.7,225.3h-0.3v-9.1h-12.5v74.1c0,0.6,0,1.1,0.1,1.7h12.1c0.1-0.6,0.2-1.1,0.1-1.7v-32.1
	c0-24,6.8-36,25.2-37.2v-12C350.3,209.7,344.2,215,338.7,225.3z"/>
<path class="st0" d="M94.4,208.7c25,0,42,16.8,42,41.6s-17.1,41.6-42,41.6s-41.9-17-41.9-41.6C52.5,225.5,69.6,208.7,94.4,208.7z
	 M94.4,281.7c18.1,0,30.4-12.6,30.4-31.3s-12.3-31.3-30.4-31.3c-18,0-30.3,12.6-30.3,31.3S76.5,281.7,94.4,281.7z"/>
<rect x="31" y="175" class="st1" width="800" height="159"/>
</svg>
