<?xml version="1.0" encoding="utf-8"?>
<!-- Generator: Adobe Illustrator 19.2.1, SVG Export Plug-In . SVG Version: 6.00 Build 0)  -->
<svg version="1.1" id="layer" xmlns="http://www.w3.org/2000/svg" xmlns:xlink="http://www.w3.org/1999/xlink" x="0px" y="0px"
	 viewBox="0 0 652 652" style="enable-background:new 0 0 652 652;" xml:space="preserve">
<style type="text/css">
	.st0{fill:#0060A2;}
	.st1{fill:#E11B24;}
</style>
<g>
	<path class="st0" d="M67.7,396.8v-34.4H86v34.4c0,18.7-9.5,33.1-30.3,33.1c-21.4,0-30.2-15.4-30.2-33.1v-34.4H44v34.4
		c0,8.9,3.3,16.8,11.8,16.8C64.4,413.6,67.7,405.4,67.7,396.8"/>
	<polygon class="st0" points="123.1,396.4 123.1,429.3 104.7,429.3 104.7,362.4 119,362.4 145.9,396.4 145.9,362.4 164.3,362.4 
		164.3,429.3 149.7,429.3 	"/>
	<rect x="183.8" y="362.4" class="st0" width="18.4" height="66.9"/>
	<path class="st0" d="M217.9,395.7c0-17.7,13.6-33.7,32.3-33.7c19.2,0,31.9,17.1,31.9,34.1c0,17.5-13.4,33.7-32.2,33.7
		C230.7,429.9,217.9,413,217.9,395.7 M250,413.6c9.3,0,13.4-9.1,13.4-17.8c0-9-4.4-17.4-13.5-17.4c-9.2,0-13.4,8.9-13.4,17.6
		C236.6,404.9,240.9,413.6,250,413.6"/>
	<polygon class="st0" points="316.3,396.4 316.3,429.3 298,429.3 298,362.4 312.3,362.4 339.2,396.4 339.2,362.4 357.5,362.4 
		357.5,429.3 342.9,429.3 	"/>
	<path class="st1" d="M378.5,429.3v-66.9h27.7c11.5,0,19.8,10.7,19.8,21c0,10.9-7.7,21.2-19.2,21.2H385v24.7H378.5z M385,398.7h21.4
		c7.9,0,13-7.3,13-15.4c0-8.4-6.2-15.2-13.6-15.2H385V398.7z"/>
	<polygon class="st1" points="443.7,429.3 443.7,362.4 450.2,362.4 450.2,423.4 488.9,423.4 488.9,429.3 	"/>
	<path class="st1" d="M550.7,396.1v-33.8h6.6v33.8c0,18-7.6,33.7-28.2,33.7c-21.3,0-28.2-16.6-28.2-33.7v-33.8h6.5v33.8
		c0,14,5,27.7,21.6,27.7C545.9,423.8,550.7,409.8,550.7,396.1"/>
	<path class="st1" d="M619.2,374.9c-3.8-4.2-10.4-7.2-18.3-7.2c-11.9,0-17.1,4.8-17.1,12.4c0,7.9,5.8,10,18.7,12.8
		c14.2,3,23.1,6.8,23.1,18.8c0,12.4-10.1,18.1-24,18.1c-10.5,0-19.5-3.3-26.9-9.7l3.2-5.4c4.9,5.1,13.6,9.2,23.8,9.2
		c10.7,0,17.1-3.9,17.1-11.6c0-8.2-6.9-10.8-20.3-13.9c-13.9-3.2-21.3-6.6-21.3-17.4c0-12.4,9.8-19.2,23.9-19.2
		c8.8,0,15.7,2.8,21.3,7.7L619.2,374.9z"/>
	<path class="st1" d="M363,318.8c-0.4-3,1.2-5.6,2.6-8c1.7-3.6,4.8-7,4.1-11.4c-2.4-4.8-8.2-4.7-13-5.4c-6.6-0.6-13.1,0.6-19,2.2
		c-3.5,0.9-6.9,2.1-10.2,3.5c-7,3-14.1,6.5-20.5,10.8c-1-2.4-1.6-4.9-2.4-7.2c-2.7-6.7-4.2-13.5-6.5-20.2l0.3-0.5
		c11.8-7.5,24.8-13.7,39.2-15.9c4-0.7,8.3-0.6,12.3-0.2h1.2c1.7-3.2,4-6,4.5-9.7c0.1-1.8-0.6-3.5-2-4.6c-1-0.8-2.5-1-3.5-1.7
		c-2.6-0.2-4.7-1.4-7.5-1.1l-0.1-0.2c-1.6,0.1-3-0.4-4.5,0h-3.4c-1.1,0.4-2.4,0.3-3.5,0.5c-14.1,2.2-26.9,8.5-38.6,16.2
		c-2.2-6.2-4.4-12.6-6.3-18.9c-1.1-2.9-1.9-5.9-2.9-8.8c9.4-6.1,19.1-11.3,29.8-14.3c3.5-0.8,6.9-1.8,10.6-2.1
		c4.6-0.3,9.1-0.7,13.6,0.3c3.2,0.7,7,1.3,8.6,4.5c2.5,6.9,5,14.2,7.2,21.2c14.2-3.2,27.2-9.3,40.2-15.5c5.4-2.9,11.1-6,16.3-9.3
		l0.4,0.1c3,9.2,5.8,18.3,9,27.3c-1.5,1.5-3.4,2.4-5.3,3.6c-13.9,8.1-28.8,14.9-44.2,19.8c-2.1,0.6-4.2,1.2-6.4,1.7
		c-0.1,0.5-0.7,0.1-0.8,0.6c1.8,5.7,3.7,10.9,5.3,16.6c1.4,0,2.8-0.6,4.1-0.9c5.7-1.5,11.3-3.5,16.7-5.7c11-4.5,22.1-9.8,32.3-15.7
		c1.5-0.9,2.4-2.2,4.2-2.7c3.1,9.3,6.1,18.4,8.9,27.6c-8.1,5.5-17.2,9.7-26.1,13.9c-9.4,4.1-18.8,8.1-29,10.7
		c-2.2,0.1-3.9,1.3-6.1,1.1c-1.7,0.5-3.6,0.3-5.5,0.5C365.4,321,363.4,320.7,363,318.8"/>
	<path class="st0" d="M259.5,252.2c2.4,7.6,5,15.6,7,23.2h7c3.9-0.4,8.1-0.2,12-0.5c2.5,0.4,4.7-0.6,7.1-0.3
		c0.4,0.7-0.6,0.5-0.7,0.9c-6.8,4.8-13.9,9.8-20.5,14.5c2.7,8.2,6,16.5,8.7,24.8h-0.3c-7-5.3-13.8-10.4-20.8-15.6h-0.3
		c-2.5,2.2-5.4,4-7.8,6.2c-0.7,0.1-1.1,0.8-1.6,1.2c-3.9,2.8-7.3,5.8-11.3,8.4l-0.1-0.1c2.8-8.3,5.5-16.2,8.3-24.4l-0.1-0.5
		c-7.1-4.8-14.4-9.7-21.3-14.6c0.8-0.5,2.2-0.2,3.2-0.3l0.3,0.2l15.5,0.1l0.4,0.2l6.8-0.2c3.1-8.1,5.1-16.7,7.7-25.1
		C259.3,250.9,259.2,251.7,259.5,252.2"/>
</g>
</svg>
